<svg width="1031" height="117" viewBox="0 0 1031 117" fill="none" xmlns="http://www.w3.org/2000/svg">
<g clip-path="url(#clip0_14_2985)">
<path d="M655 79.69H649.68V106.36H655V79.69Z" fill="#FFFEFE"/>
<path d="M649.68 5H548.355V10.355H543V74.335H548.355V79.69H574.99V74.335H553.675V10.355H644.325V26.35H639.005V58.34H644.325V63.695H649.68V69.015H655V10.355H649.68V5ZM649.68 53.02H644.325V42.345H649.68V53.02ZM649.68 37.025H644.325V31.67H649.68V37.025Z" fill="#FFFEFE"/>
<path d="M649.68 106.36H644.325V111.68H649.68V106.36Z" fill="#FFFEFE"/>
<path d="M649.68 74.335H644.325V79.69H649.68V74.335Z" fill="#FFFEFE"/>
<path d="M644.325 111.68H639.005V117H644.325V111.68Z" fill="#FFFEFE"/>
<path d="M644.325 69.015H639.005V74.335H644.325V69.015Z" fill="#FFFEFE"/>
<path d="M617.655 63.695V42.345H612.335V69.015H639.005V63.695H617.655Z" fill="#FFFEFE"/>
<path d="M633.685 74.335H628.33V90.33H633.685V74.335Z" fill="#FFFEFE"/>
<path d="M628.33 21.03H623.01V26.35H628.33V21.03Z" fill="#FFFEFE"/>
<path d="M623.01 26.35H617.655V31.67H623.01V26.35Z" fill="#FFFEFE"/>
<path d="M617.655 74.335H612.335V90.33H617.655V74.335Z" fill="#FFFEFE"/>
<path d="M612.335 37.025H601.66V42.345H612.335V37.025Z" fill="#FFFEFE"/>
<path d="M607.015 15.675H601.66V31.67H607.015V15.675Z" fill="#FFFEFE"/>
<path d="M601.66 106.36H596.34V117H601.66V106.36Z" fill="#FFFEFE"/>
<path d="M596.34 69.015H585.665V74.335H596.34V85.01H601.66V42.345H596.34V69.015Z" fill="#FFFEFE"/>
<path d="M596.34 101.005H591.02V106.36H596.34V101.005Z" fill="#FFFEFE"/>
<path d="M591.02 95.685H585.665V101.005H591.02V95.685Z" fill="#FFFEFE"/>
<path d="M591.02 26.35H585.665V31.67H591.02V26.35Z" fill="#FFFEFE"/>
<path d="M585.665 74.335H580.345V95.685H585.665V74.335Z" fill="#FFFEFE"/>
<path d="M585.665 21.03H580.345V26.35H585.665V21.03Z" fill="#FFFEFE"/>
<path d="M649.68 5H548.355V10.355H543V74.335H548.355V79.69H574.99V74.335H553.675V10.355H644.325V26.35H639.005V58.34H644.325V63.695H649.68V69.015H655V10.355H649.68V5ZM649.68 53.02H644.325V42.345H649.68V53.02ZM649.68 37.025H644.325V31.67H649.68V37.025Z" fill="#FFFEFE"/>
<path d="M612.335 37.025H601.66V42.345H612.335V37.025Z" fill="#FFFEFE"/>
<path d="M596.34 69.015H585.665V74.335H596.34V85.01H601.66V42.345H596.34V69.015Z" fill="#FFFEFE"/>
<path d="M617.655 63.695V42.345H612.335V69.015H639.005V63.695H617.655Z" fill="#FFFEFE"/>
<path d="M644.325 69.015H639.005V74.335H644.325V69.015Z" fill="#FFFEFE"/>
</g>
<path d="M5.32 0V5.355H0V106.68H5.32V112H85.33V106.68H90.685V5.355H85.33V0H5.32ZM47.985 106.68H42.665V101.36H47.985V106.68ZM80.01 96.005H10.6925V10.675H80.0275L80.01 96.005Z" fill="#FFFEFE"/>
<path d="M42.665 42.665H47.985V53.34H74.655V26.67H47.985V37.345H42.665V26.67H15.995V53.34H42.665V42.665ZM53.34 32.025H69.335V48.02H53.34V32.025ZM37.345 48.02H21.35V32.025H37.345V48.02Z" fill="#FFFEFE"/>
<path d="M64.015 37.345H58.66V42.665H64.015V37.345Z" fill="#FFFEFE"/>
<path d="M58.66 58.66H53.34V64.015H58.66V58.66Z" fill="#FFFEFE"/>
<path d="M53.34 64.015H42.665V69.335H53.34V64.015Z" fill="#FFFEFE"/>
<path d="M31.99 37.345H26.67V42.665H31.99V37.345Z" fill="#FFFEFE"/>
<path d="M461.663 81.01H445.668V75.655H450.988V70.335H371.013V75.655H376.35V81.01H360.338V113H461.663V81.01ZM381.653 75.655H440.313V81.01H381.653V75.655ZM456.343 107.68H365.658V86.33H456.343V107.68Z" fill="#FFFEFE"/>
<path d="M456.343 6.32001H450.988V70.335H456.343V6.32001Z" fill="#FFFEFE"/>
<path d="M445.667 91.65H418.997V97.005H445.667V91.65Z" fill="#FFFEFE"/>
<path d="M424.317 38.345H418.997V43.665H424.317V38.345Z" fill="#FFFEFE"/>
<path d="M424.317 27.67H418.997V32.99H424.317V27.67Z" fill="#FFFEFE"/>
<path d="M418.998 43.665H403.003V48.985H418.998V43.665Z" fill="#FFFEFE"/>
<path d="M403.003 38.345H397.648V43.665H403.003V38.345Z" fill="#FFFEFE"/>
<path d="M403.003 27.67H397.648V32.99H403.003V27.67Z" fill="#FFFEFE"/>
<path d="M376.35 65.015H445.685V11.675H376.35V65.015ZM381.653 16.995H440.313V59.66H381.653V16.995Z" fill="#FFFEFE"/>
<path d="M387.008 91.65H376.333V102.325H387.008V91.65Z" fill="#FFFEFE"/>
<path d="M450.988 1H371.013V6.32H450.988V1Z" fill="#FFFEFE"/>
<path d="M371.013 6.32001H365.658V70.335H371.013V6.32001Z" fill="#FFFEFE"/>
<path d="M371.013 6.32001H365.658V70.335H371.013V6.32001Z" fill="#FFFEFE"/>
<path d="M456.343 6.32001H450.988V70.335H456.343V6.32001Z" fill="#FFFEFE"/>
<path d="M376.35 65.015H445.685V11.675H376.35V65.015ZM381.653 16.995H440.313V59.66H381.653V16.995Z" fill="#FFFEFE"/>
<path d="M403.003 38.345H397.648V43.665H403.003V38.345Z" fill="#FFFEFE"/>
<path d="M424.317 38.345H418.997V43.665H424.317V38.345Z" fill="#FFFEFE"/>
<path d="M418.998 43.665H403.003V48.985H418.998V43.665Z" fill="#FFFEFE"/>
<path d="M279 24.35H273.645V93.65H279V24.35Z" fill="#FFFEFE"/>
<path d="M273.645 93.65H268.325V99.005H273.645V93.65Z" fill="#FFFEFE"/>
<path d="M273.645 18.995H268.325V24.35H273.645V18.995Z" fill="#FFFEFE"/>
<path d="M268.325 29.67H263.005V40.345H268.325V29.67Z" fill="#FFFEFE"/>
<path d="M268.325 99.005H177.675V104.325H268.325V99.005Z" fill="#FFFEFE"/>
<path d="M263.005 83.01H257.65V88.33H263.005V83.01Z" fill="#FFFEFE"/>
<path d="M263.005 40.345H257.65V45.665H263.005V40.345Z" fill="#FFFEFE"/>
<path d="M257.65 77.655H252.33V83.01H257.65V77.655Z" fill="#FFFEFE"/>
<path d="M257.65 45.665H252.33V50.985H257.65V45.665Z" fill="#FFFEFE"/>
<path d="M252.33 72.335H246.975V77.655H252.33V72.335Z" fill="#FFFEFE"/>
<path d="M252.33 50.985H246.975V56.34H252.33V50.985Z" fill="#FFFEFE"/>
<path d="M246.975 67.015H241.655V72.335H246.975V67.015Z" fill="#FFFEFE"/>
<path d="M246.975 56.34H241.655V61.66H246.975V56.34Z" fill="#FFFEFE"/>
<path d="M241.655 61.66H230.98V67.015H241.655V61.66Z" fill="#FFFEFE"/>
<path d="M230.98 67.015H214.985V72.335H230.98V67.015Z" fill="#FFFEFE"/>
<path d="M214.985 61.66H204.31V67.015H214.985V61.66Z" fill="#FFFEFE"/>
<path d="M204.31 67.015H198.99V72.335H204.31V67.015Z" fill="#FFFEFE"/>
<path d="M204.31 56.34H198.99V61.66H204.31V56.34Z" fill="#FFFEFE"/>
<path d="M198.99 72.335H193.67V77.655H198.99V72.335Z" fill="#FFFEFE"/>
<path d="M198.99 50.985H193.67V56.34H198.99V50.985Z" fill="#FFFEFE"/>
<path d="M193.67 77.655H188.315V83.01H193.67V77.655Z" fill="#FFFEFE"/>
<path d="M193.67 45.665H188.315V50.985H193.67V45.665Z" fill="#FFFEFE"/>
<path d="M188.315 83.01H182.995V88.33H188.315V83.01Z" fill="#FFFEFE"/>
<path d="M188.315 40.345H182.995V45.665H188.315V40.345Z" fill="#FFFEFE"/>
<path d="M268.325 13.675H177.675V18.995H268.325V13.675Z" fill="#FFFEFE"/>
<path d="M182.995 29.67H177.675V40.345H182.995V29.67Z" fill="#FFFEFE"/>
<path d="M177.675 93.65H172.32V99.005H177.675V93.65Z" fill="#FFFEFE"/>
<path d="M177.675 18.995H172.32V24.35H177.675V18.995Z" fill="#FFFEFE"/>
<path d="M172.32 24.35H167V93.65H172.32V24.35Z" fill="#FFFEFE"/>
<path d="M172.32 24.35H167V93.65H172.32V24.35Z" fill="#FFFEFE"/>
<path d="M279 24.35H273.645V93.65H279V24.35Z" fill="#FFFEFE"/>
<path d="M182.995 29.67H177.675V40.345H182.995V29.67Z" fill="#FFFEFE"/>
<path d="M268.325 29.67H263.005V40.345H268.325V29.67Z" fill="#FFFEFE"/>
<path d="M188.315 40.345H182.995V45.665H188.315V40.345Z" fill="#FFFEFE"/>
<path d="M263.005 40.345H257.65V45.665H263.005V40.345Z" fill="#FFFEFE"/>
<path d="M193.67 45.665H188.315V50.985H193.67V45.665Z" fill="#FFFEFE"/>
<path d="M257.65 45.665H252.33V50.985H257.65V45.665Z" fill="#FFFEFE"/>
<path d="M198.99 50.985H193.67V56.34H198.99V50.985Z" fill="#FFFEFE"/>
<path d="M252.33 50.985H246.975V56.34H252.33V50.985Z" fill="#FFFEFE"/>
<path d="M204.31 56.34H198.99V61.66H204.31V56.34Z" fill="#FFFEFE"/>
<path d="M246.975 56.34H241.655V61.66H246.975V56.34Z" fill="#FFFEFE"/>
<path d="M214.985 61.66H204.31V67.015H214.985V61.66Z" fill="#FFFEFE"/>
<path d="M241.655 61.66H230.98V67.015H241.655V61.66Z" fill="#FFFEFE"/>
<path d="M204.31 67.015H198.99V72.335H204.31V67.015Z" fill="#FFFEFE"/>
<path d="M230.98 67.015H214.985V72.335H230.98V67.015Z" fill="#FFFEFE"/>
<path d="M246.975 67.015H241.655V72.335H246.975V67.015Z" fill="#FFFEFE"/>
<path d="M821.685 20.995V26.35H827.005V79.69H832.325V20.995H827.005V15.675H816.33V20.995H821.685Z" fill="#FFFEFE"/>
<path d="M827.005 79.69H821.685V90.33H827.005V79.69Z" fill="#FFFEFE"/>
<path d="M821.685 90.33H816.33V95.685H821.685V90.33Z" fill="#FFFEFE"/>
<path d="M821.685 26.35H816.33V79.69H821.685V26.35Z" fill="#FFFEFE"/>
<path d="M816.33 95.685H811.01V101.005H816.33V95.685Z" fill="#FFFEFE"/>
<path d="M816.33 79.69H811.01V90.33H816.33V79.69Z" fill="#FFFEFE"/>
<path d="M811.01 101.005H805.69V106.36H811.01V101.005Z" fill="#FFFEFE"/>
<path d="M811.01 90.33H805.69V95.685H811.01V90.33Z" fill="#FFFEFE"/>
<path d="M816.33 20.995H805.69V26.35H816.33V20.995Z" fill="#FFFEFE"/>
<path d="M816.33 10.355H805.69V15.675H816.33V10.355Z" fill="#FFFEFE"/>
<path d="M805.69 106.36H795.015V111.68H805.69V106.36Z" fill="#FFFEFE"/>
<path d="M805.69 95.685H795.015V101.005H805.69V95.685Z" fill="#FFFEFE"/>
<path d="M779.02 53.02V42.345H773.665V53.02H768.345V79.69H773.665V85.01H800.335V79.69H805.69V53.02H800.335V42.345H795.015V53.02H779.02ZM789.66 69.015H784.34V58.34H789.66V69.015Z" fill="#FFFEFE"/>
<path d="M795.015 111.68H779.02V117H795.015V111.68Z" fill="#FFFEFE"/>
<path d="M795.015 101.005H779.02V106.36H795.015V101.005Z" fill="#FFFEFE"/>
<path d="M795.015 37.025H779.02V42.345H795.015V37.025Z" fill="#FFFEFE"/>
<path d="M779.02 106.36H768.345V111.68H779.02V106.36Z" fill="#FFFEFE"/>
<path d="M779.02 95.685H768.345V101.005H779.02V95.685Z" fill="#FFFEFE"/>
<path d="M805.69 15.675H768.345V20.995H805.69V15.675Z" fill="#FFFEFE"/>
<path d="M805.69 5H768.345V10.355H805.69V5Z" fill="#FFFEFE"/>
<path d="M768.345 101.005H762.99V106.36H768.345V101.005Z" fill="#FFFEFE"/>
<path d="M768.345 90.33H762.99V95.685H768.345V90.33Z" fill="#FFFEFE"/>
<path d="M768.345 20.995H757.67V26.35H768.345V20.995Z" fill="#FFFEFE"/>
<path d="M768.345 10.355H757.67V15.675H768.345V10.355Z" fill="#FFFEFE"/>
<path d="M762.99 95.685H757.67V101.005H762.99V95.685Z" fill="#FFFEFE"/>
<path d="M762.99 79.69H757.67V90.33H762.99V79.69Z" fill="#FFFEFE"/>
<path d="M757.67 90.33H752.35V95.685H757.67V90.33Z" fill="#FFFEFE"/>
<path d="M757.67 26.35H752.35V79.69H757.67V26.35Z" fill="#FFFEFE"/>
<path d="M757.67 15.675H746.995V20.995H757.67V15.675Z" fill="#FFFEFE"/>
<path d="M752.35 79.69H746.995V90.33H752.35V79.69Z" fill="#FFFEFE"/>
<path d="M746.995 20.995H741.675V79.69H746.995V20.995Z" fill="#FFFEFE"/>
<path d="M821.685 20.995V26.35H827.005V79.69H832.325V20.995H827.005V15.675H816.33V20.995H821.685Z" fill="#FFFEFE"/>
<path d="M746.995 20.995H741.675V79.69H746.995V20.995Z" fill="#FFFEFE"/>
<path d="M757.67 26.35H752.35V79.69H757.67V26.35Z" fill="#FFFEFE"/>
<path d="M821.685 26.35H816.33V79.69H821.685V26.35Z" fill="#FFFEFE"/>
<path d="M795.015 37.025H779.02V42.345H795.015V37.025Z" fill="#FFFEFE"/>
<path d="M779.02 53.02V42.345H773.665V53.02H768.345V79.69H773.665V85.01H800.335V79.69H805.69V53.02H800.335V42.345H795.015V53.02H779.02ZM789.66 69.015H784.34V58.34H789.66V69.015Z" fill="#FFFEFE"/>
<path d="M1028.34 10.355H1022.98V74.335H1028.34V10.355Z" fill="#FFFEFE"/>
<path d="M926.98 111.68V106.36H921.66V117H1028.34V106.36H1022.99V111.68H926.98Z" fill="#FFFEFE"/>
<path d="M1022.99 101.005H1017.67V106.36H1022.99V101.005Z" fill="#FFFEFE"/>
<path d="M1017.66 95.685H1012.34V101.005H1017.66V95.685Z" fill="#FFFEFE"/>
<path d="M943.01 85.01V90.33H1006.99V85.01H990.995V79.69H1022.98V74.335H926.98V79.69H959.005V85.01H943.01ZM964.325 79.69H985.675V85.01H964.325V79.69Z" fill="#FFFEFE"/>
<path d="M1012.34 90.33H1006.99V95.685H1012.34V90.33Z" fill="#FFFEFE"/>
<path d="M1017.67 15.675H932.335V69.015H1017.67V15.675ZM1012.35 63.66H937.655V20.995H1012.35V63.66Z" fill="#FFFEFE"/>
<path d="M1006.99 101.005H1001.67V106.36H1006.99V101.005Z" fill="#FFFEFE"/>
<path d="M1001.67 95.685H996.315V101.005H1001.67V95.685Z" fill="#FFFEFE"/>
<path d="M985.675 42.345H990.995V47.665H996.315V42.345H1001.67V37.025H1006.99V31.67H1001.67V26.35H996.315V31.67H990.995V26.35H985.675V31.67H980.32V37.025H985.675V42.345Z" fill="#FFFEFE"/>
<path d="M990.995 101.005H985.675V106.36H990.995V101.005Z" fill="#FFFEFE"/>
<path d="M985.675 95.685H980.32V101.005H985.675V95.685Z" fill="#FFFEFE"/>
<path d="M975 101.005H969.645V106.36H975V101.005Z" fill="#FFFEFE"/>
<path d="M969.645 95.685H964.325V101.005H969.645V95.685Z" fill="#FFFEFE"/>
<path d="M964.325 101.005H959.005V106.36H964.325V101.005Z" fill="#FFFEFE"/>
<path d="M953.65 95.685H948.33V101.005H953.65V95.685Z" fill="#FFFEFE"/>
<path d="M948.33 101.005H943.01V106.36H948.33V101.005Z" fill="#FFFEFE"/>
<path d="M943.01 90.33H937.655V95.685H943.01V90.33Z" fill="#FFFEFE"/>
<path d="M937.655 95.685H932.335V101.005H937.655V95.685Z" fill="#FFFEFE"/>
<path d="M1022.98 5H926.98V10.355H1022.98V5Z" fill="#FFFEFE"/>
<path d="M932.335 101.005H926.98V106.36H932.335V101.005Z" fill="#FFFEFE"/>
<path d="M926.98 10.355H921.66V74.335H926.98V10.355Z" fill="#FFFEFE"/>
<path d="M926.98 10.355H921.66V74.335H926.98V10.355Z" fill="#FFFEFE"/>
<path d="M1017.67 15.675H932.335V69.015H1017.67V15.675ZM1012.35 63.66H937.655V20.995H1012.35V63.66Z" fill="#FFFEFE"/>
<path d="M985.675 42.345H990.995V47.665H996.315V42.345H1001.67V37.025H1006.99V31.67H1001.67V26.35H996.315V31.67H990.995V26.35H985.675V31.67H980.32V37.025H985.675V42.345Z" fill="#FFFEFE"/>
<path d="M5.32 0V5.355H0V106.68H5.32V112H85.33V106.68H90.685V5.355H85.33V0H5.32ZM47.985 106.68H42.665V101.36H47.985V106.68ZM80.01 96.005H10.6925V10.675H80.0275L80.01 96.005Z" fill="#FFFEFE"/>
<path d="M42.665 42.665H47.985V53.34H74.655V26.67H47.985V37.345H42.665V26.67H15.995V53.34H42.665V42.665ZM53.34 32.025H69.335V48.02H53.34V32.025ZM37.345 48.02H21.35V32.025H37.345V48.02Z" fill="#FFFEFE"/>
<path d="M64.015 37.345H58.66V42.665H64.015V37.345Z" fill="#FFFEFE"/>
<path d="M58.66 58.66H53.34V64.015H58.66V58.66Z" fill="#FFFEFE"/>
<path d="M53.34 64.015H42.665V69.335H53.34V64.015Z" fill="#FFFEFE"/>
<path d="M31.99 37.345H26.67V42.665H31.99V37.345Z" fill="#FFFEFE"/>
<defs>
<clipPath id="clip0_14_2985">
<rect width="112" height="112" fill="white" transform="translate(543 5)"/>
</clipPath>
</defs>
</svg>
